{"title":"Prowl 2010 DVDrip English Klam","uid":6487354,"size":1090680654,"categoryP":"video","categoryS":"movies","magnet":"?xt=urn:btih:feac18492fe1092ffb541210a2b83ef340564afc&amp;dn=Prowl+2010+DVDrip+English+Klam&amp;tr=udp%3A%2F%2Ftracker.openbittorrent.com%3A80&amp;tr=udp%3A%2F%2Fopen.demonii.com%3A1337&amp;tr=udp%3A%2F%2Ftracker.coppersurfer.tk%3A6969&amp;tr=udp%3A%2F%2Fexodus.desync.com%3A6969","seeders":0,"leechers":0,"uploader":"Klambake","files":-1,"time":1308750531,"description":"With: Ruta Gedmintas, Joshua Bowman and Courtney Hope\n\nAmber droomt ervan het kleine stadje waar ze woont te verlaten, en haar vrienden helpen haar met het zoeken naar een appartement in de grote stad. Als hun auto het begeeft, krijgen ze een lift aangeboden, die ze dankbaar accepteren. Maar dan weigert de bestuurder te stoppen en ontdekken ze dat hij bloed transporteert. Hierdoor slaat de paniek snel toe. Dan stopt de vrachtwagen, en komen de vrienden erachter dat ze zich in een donker pakhuis bevinden. Hier worden ze opgejaagd door een groep wezens, die moeten leren jagen op mensen.\n\nAmber dreams of escaping her small town existence and persuades her friends to accompany her to find an apartment in the big city...\n\n------------------ Dutch Friends ------------------\n\nYou can find my Friends at: http://www.Film-Test.nl \n                    \n------ They got my dutchs subs ---- and more ------\n\nGeneral:\n\nComplete name                    : Prowl\\Prowl.avi\nFormat                           : AVI\nFormat/Info                      : Audio Video Interleave\nFile size                        : 1.02 GiB\nDuration                         : 1h 24mn\nOverall bit rate                 : 1 723 Kbps\n\nVideo\nID                               : :0Format                           : MPEG-4 Visual\nFormat profile                   : Simple@L3\nFormat settings, BVOP            : No\nFormat settings, QPel            : No\nFormat settings, GMC             : No warppoints\nFormat settings, Matrix          : Default (H.263)\nCodec ID                         : XVID\nCodec ID/Hint                    : XviD\nDuration                         : 1h 24mn\nBit rate                         : 1 265 Kbps\nWidth                            : 652 pixels\nHeight                           : 352 pixels\nDisplay aspect ratio             : 1.852\nFrame rate                       : 23.976 fps\nColor space                      : YUV\nChroma subsampling               : 4:2:0\nBit depth                        : 8 bits\nScan type                        : Progressive\nBits/(Pixel*Frame)               : 0.230\nStream size                      : 763 MiB (73%)\nWriting library                  : XviD 1.1.2 (UTC 2006-11-01)\n\nAudio:\n\nFormat                           : AC-3\nFormat/Info                      : Audio Coding 3\nMode extension                   : CM (complete main)\nCodec ID                         : 2000\nDuration                         : 1h 24mn\nBit rate mode                    : Constant\nBit rate                         : 448 Kbps\nChannel(s)                       : 6 channels\nChannel positions                : Front: L C R, Side: L R, LFE\nSampling rate                    : 48.0 KHz\nBit depth                        : 16 bits\nStream size                      : 270 MiB (26%)\nAlignment                        : Aligned on interleaves\nInterleave, duration             : 32 ms (0.77 video frame)\n\n","torrent":{"xt":"urn:btih:feac18492fe1092ffb541210a2b83ef340564afc","amp;dn":"Prowl+2010+DVDrip+English+Klam","amp;tr":["udp%3A%2F%2Ftracker.openbittorrent.com%3A80","udp%3A%2F%2Fopen.demonii.com%3A1337","udp%3A%2F%2Ftracker.coppersurfer.tk%3A6969","udp%3A%2F%2Fexodus.desync.com%3A6969"],"infoHash":"feac18492fe1092ffb541210a2b83ef340564afc","infoHashBuffer":{"type":"Buffer","data":[254,172,24,73,47,225,9,47,251,84,18,16,162,184,62,243,64,86,74,252]},"announce":[],"urlList":[]}}